<svg xmlns="http://www.w3.org/2000/svg" width="24" height="24" viewBox="0 0 24 24">
  <g id="setting_icon" data-name="setting icon" transform="translate(-552.994 -355.996)">
    <rect id="Rectangle_1469" data-name="Rectangle 1469" width="24" height="24" transform="translate(552.995 355.996)" fill="none"/>
    <g id="Group_317" data-name="Group 317" transform="translate(-409.088 -296)">
      <g id="_settings" data-name=" settings" transform="translate(967.088 657)">
        <path id="Icon" d="M6.839,11.66H4.507a.285.285,0,0,1-.285-.245L4,9.87A4.293,4.293,0,0,1,3.014,9.3l-1.452.583a.3.3,0,0,1-.1.018.287.287,0,0,1-.254-.146L.041,7.737a.293.293,0,0,1,.07-.373L1.341,6.4A4.525,4.525,0,0,1,1.3,5.83a4.5,4.5,0,0,1,.041-.571L.111,4.3a.285.285,0,0,1-.07-.373L1.207,1.907a.284.284,0,0,1,.25-.149.291.291,0,0,1,.106.02l1.452.583A4.448,4.448,0,0,1,4,1.79L4.221.245A.285.285,0,0,1,4.507,0H6.839a.284.284,0,0,1,.285.245L7.346,1.79a4.3,4.3,0,0,1,.985.571l1.452-.583a.3.3,0,0,1,.1-.017.286.286,0,0,1,.254.146L11.3,3.924a.294.294,0,0,1-.07.373L10,5.259a4.625,4.625,0,0,1,.041.571A4.62,4.62,0,0,1,10,6.4l1.23.962a.293.293,0,0,1,.07.373L10.138,9.753a.284.284,0,0,1-.249.149.289.289,0,0,1-.106-.02L8.331,9.3a4.46,4.46,0,0,1-.985.571l-.221,1.545A.284.284,0,0,1,6.839,11.66ZM5.672,3.79A2.041,2.041,0,1,0,7.713,5.83,2.043,2.043,0,0,0,5.672,3.79Z" transform="translate(1.323 1.166)" fill="#ff9797"/>
      </g>
    </g>
  </g>
</svg>
