<svg xmlns="http://www.w3.org/2000/svg" width="24" height="24" viewBox="0 0 24 24">
  <g id="_warning" data-name=" warning" transform="translate(-100 -728)">
    <rect id="Rectangle_Copy_30" data-name="Rectangle Copy 30" width="24" height="24" transform="translate(100 728)" fill="rgba(0,0,0,0)"/>
    <path id="Icon" d="M119.53,749H104.47a2,2,0,0,1-1.73-3l7.529-13.01a2,2,0,0,1,3.46,0L121.26,746a2,2,0,0,1-1.73,3ZM111,744v2h2v-2Zm1-6a1,1,0,0,0-1,1v2a1,1,0,1,0,2,0v-2A1,1,0,0,0,112,738Z" fill="#ff9797"/>
  </g>
</svg>
