<svg xmlns="http://www.w3.org/2000/svg" width="38" height="39.824" viewBox="0 0 38 39.824">
  <g id="Accuracy_Checking_" data-name="Accuracy Checking   " transform="translate(-574 -462)">
    <rect id="Path" width="38" height="39.824" transform="translate(574 462)" fill="rgba(0,0,0,0)"/>
    <path id="Icon" d="M16.594,31.68a1.508,1.508,0,0,1-1.1-.486l-5.765-6.1a1.728,1.728,0,0,1,0-2.34,1.5,1.5,0,0,1,2.209,0l4.653,4.928L28.163,15.415a1.494,1.494,0,0,1,2.192.016,1.721,1.721,0,0,1,0,2.34L17.7,31.194A1.511,1.511,0,0,1,16.594,31.68Zm-.6-10.11a1.563,1.563,0,0,1-1.427-1.029l-1.41-3.949H4.32L2.941,20.525a1.539,1.539,0,0,1-1.425,1.045,1.493,1.493,0,0,1-1.253-.706A1.675,1.675,0,0,1,.106,19.38L6.763,1.443a2.093,2.093,0,0,1,3.979,0L17.4,19.38a1.68,1.68,0,0,1-.154,1.49A1.472,1.472,0,0,1,15.991,21.571ZM8.753,4.114,5.51,13.273H12L8.753,4.114Z" transform="translate(578.833 466.979)" fill="#43425d"/>
  </g>
</svg>
