<svg xmlns="http://www.w3.org/2000/svg" width="22.681" height="20.542" viewBox="0 0 22.681 20.542">
  <g id="Group_255" data-name="Group 255" transform="translate(-400.5 -89.189)">
    <path id="Subtraction_6" data-name="Subtraction 6" d="M-368.516-2242.458a1.03,1.03,0,0,1-.745-.316l-4.711-4.875a7.887,7.887,0,0,1-4.543,1.428,7.97,7.97,0,0,1-6.464-3.322h3.375a5.481,5.481,0,0,0,2.942.852,5.506,5.506,0,0,0,5.5-5.5,5.506,5.506,0,0,0-5.5-5.5,5.463,5.463,0,0,0-3.22,1.04H-385a7.965,7.965,0,0,1,6.484-3.351,7.92,7.92,0,0,1,7.932,7.889,7.87,7.87,0,0,1-1.861,5.073l4.676,4.836a1.025,1.025,0,0,1,.288.734,1.018,1.018,0,0,1-.317.721A1.028,1.028,0,0,1-368.516-2242.458Z" transform="translate(790.162 2351.689)" fill="#0963AE" stroke="rgba(0,0,0,0)" stroke-width="1"/>
    <line id="Line_12" data-name="Line 12" x1="11" transform="translate(400.5 95.5)" fill="none" stroke="#0963AE" stroke-width="2"/>
    <line id="Line_13" data-name="Line 13" x1="9" transform="translate(400.5 99.5)" fill="none" stroke="#0963AE" stroke-width="2"/>
  </g>
</svg>
