<svg id="Group" xmlns="http://www.w3.org/2000/svg" xmlns:xlink="http://www.w3.org/1999/xlink" width="12" height="13.344" viewBox="0 0 12 13.344">
  <defs>
    <clipPath id="clip-path">
      <path id="Mask" d="M10.656,13.343H1.344a1.3,1.3,0,0,1-.953-.391A1.3,1.3,0,0,1,0,12V2.687a1.3,1.3,0,0,1,.391-.953,1.3,1.3,0,0,1,.953-.391H2V0H3.344V1.344H8.656V0H10V1.344h.656A1.334,1.334,0,0,1,12,2.687V12a1.334,1.334,0,0,1-1.344,1.344ZM1.344,4.687V12h9.312V4.687Zm8,6H6V7.344H9.344v3.342Z" transform="translate(0 0)" fill="#43425d"/>
    </clipPath>
  </defs>
  <path id="Mask-2" data-name="Mask" d="M10.656,13.343H1.344a1.3,1.3,0,0,1-.953-.391A1.3,1.3,0,0,1,0,12V2.687a1.3,1.3,0,0,1,.391-.953,1.3,1.3,0,0,1,.953-.391H2V0H3.344V1.344H8.656V0H10V1.344h.656A1.334,1.334,0,0,1,12,2.687V12a1.334,1.334,0,0,1-1.344,1.344ZM1.344,4.687V12h9.312V4.687Zm8,6H6V7.344H9.344v3.342Z" transform="translate(0 0)" fill="#43425d"/>
  <g id="Group-2" data-name="Group" clip-path="url(#clip-path)">
    <g id="_icon-color" data-name="↳🎨icon-color" transform="translate(-30 -28.656)">
      <rect id="_icon-color_background" data-name="↳🎨icon-color background" width="72" height="72" fill="#43425d"/>
      <rect id="Icon-Shade" width="72" height="72" fill="#43425d"/>
    </g>
  </g>
</svg>
