<svg xmlns="http://www.w3.org/2000/svg" width="38" height="38" viewBox="0 0 38 38">
  <g id="Clinical_Check" data-name="Clinical Check" transform="translate(0 0)">
    <rect id="Rectangle_960" data-name="Rectangle 960" width="38" height="38" fill="none"/>
    <g id="Group_127" data-name="Group 127" transform="translate(2 1.042)">
      <path id="Op_component_1" data-name="Op component 1" d="M457.392,176.917v-6.262h-6.262a3.131,3.131,0,0,1,0-6.262h6.262v-6.262a3.131,3.131,0,0,1,6.262,0v6.262h6.262a3.131,3.131,0,0,1,0,6.262h-6.262v6.262a3.131,3.131,0,0,1-6.262,0Z" transform="translate(-448 -155)" fill="#43425d"/>
      <path id="Op_component_3" data-name="Op component 3" d="M613.245,474.67a2.251,2.251,0,0,1,0,3.186l-18.256,18.279a2.251,2.251,0,0,1-3.186,0l-8.315-8.315a2.253,2.253,0,0,1,3.186-3.186l6.71,6.711,16.7-16.7A2.244,2.244,0,0,1,613.245,474.67Z" transform="translate(-580.698 -461.083)" fill="#43425d"/>
    </g>
  </g>
</svg>
