<svg xmlns="http://www.w3.org/2000/svg" width="24" height="24" viewBox="0 0 24 24"><defs><style>.a{fill:rgba(0,0,0,0);}.b{fill:#a9bad0;}</style></defs><g transform="translate(-168 -242)"><rect class="a" width="24" height="24" transform="translate(168 242)"/><path class="b" d="M186,264H173.99a2,2,0,0,1-1.99-2V246a2,2,0,0,1,2-2h7.17a2,2,0,0,1,1.42.59l4.819,4.83a1.974,1.974,0,0,1,.59,1.41V262A2,2,0,0,1,186,264Zm-9-6a1,1,0,0,0,0,2h6a1,1,0,0,0,0-2Zm0-4a1,1,0,0,0,0,2h6a1,1,0,0,0,0-2Zm4-8.5V250a1,1,0,0,0,1,1h4.5Z"/></g></svg>