<svg xmlns="http://www.w3.org/2000/svg" width="38" height="38" viewBox="0 0 38 38">
  <g id="Dispatch_Track" data-name="Dispatch &amp; Track" transform="translate(-168 -3210)">
    <rect id="Path" width="38" height="38" transform="translate(168 3210)" fill="rgba(0,0,0,0)"/>
    <path id="Icon" d="M18,36a1.638,1.638,0,0,1-1.636-1.636V32.629A14.718,14.718,0,0,1,3.371,19.637H1.636a1.636,1.636,0,0,1,0-3.272H3.371A14.718,14.718,0,0,1,16.364,3.371V1.636a1.636,1.636,0,1,1,3.272,0V3.371A14.718,14.718,0,0,1,32.628,16.365h1.735a1.636,1.636,0,0,1,0,3.272H32.628A14.718,14.718,0,0,1,19.636,32.629v1.735A1.638,1.638,0,0,1,18,36ZM18,6.546A11.455,11.455,0,1,0,29.455,18,11.468,11.468,0,0,0,18,6.546Zm0,18A6.546,6.546,0,1,1,24.545,18,6.552,6.552,0,0,1,18,24.546Z" transform="translate(169 3210.999)" fill="#43425d"/>
  </g>
</svg>
