<svg xmlns="http://www.w3.org/2000/svg" width="38" height="38" viewBox="0 0 38 38">
  <g id="Dispensing_" data-name="Dispensing " transform="translate(-236 -506)">
    <rect id="Path" width="38" height="38" transform="translate(236 506)" fill="rgba(0,0,0,0)"/>
    <path id="Icon" d="M32.012,31.157h-11.3a2.078,2.078,0,0,1-1.883-2.226V2.226A2.078,2.078,0,0,1,20.714,0h11.3a2.078,2.078,0,0,1,1.883,2.226V28.931A2.078,2.078,0,0,1,32.012,31.157Zm-17.948,0H1a1,1,0,0,1-1-1V27.707a1,1,0,0,1,1-1H14.064a1,1,0,0,1,1,1v2.451A1,1,0,0,1,14.064,31.157Zm0-8.9H1a1,1,0,0,1-1-1V18.8a1,1,0,0,1,1-1H14.064a1,1,0,0,1,1,1v2.451A1,1,0,0,1,14.064,22.255Zm0-8.9H1a1,1,0,0,1-1-1V9.9a1,1,0,0,1,1-1H14.064a1,1,0,0,1,1,1v2.452A1,1,0,0,1,14.064,13.353Zm0-8.9H1a1,1,0,0,1-1-1V1A1,1,0,0,1,1,0H14.064a1,1,0,0,1,1,1V3.452A1,1,0,0,1,14.064,4.451Z" transform="translate(238.053 509.421)" fill="#43425d"/>
  </g>
</svg>
