<svg xmlns="http://www.w3.org/2000/svg" width="19.899" height="19.898" viewBox="0 0 19.899 19.898">
  <g id="_create" data-name=" create" transform="translate(-576 -1482)">
    <rect id="Path" width="19.899" height="19.899" transform="translate(576 1482)" fill="rgba(0,0,0,0)"/>
    <path id="Icon" d="M2.936,14.927H.415A.41.41,0,0,1,0,14.512V11.991a.411.411,0,0,1,.125-.3L9.17,2.647l3.11,3.109L3.226,14.8A.39.39,0,0,1,2.936,14.927ZM13.167,4.869h0L10.058,1.76,11.575.243a.825.825,0,0,1,1.169,0l1.94,1.94a.826.826,0,0,1,0,1.168L13.168,4.869Z" transform="translate(578.487 1484.485)" fill="#43425d"/>
  </g>
</svg>
