<svg xmlns="http://www.w3.org/2000/svg" width="21.012" height="21.012" viewBox="0 0 21.012 21.012"><defs><style>.a{fill:rgba(0,0,0,0);}.b{fill:#a9bad0;}.c{fill:#fff;}</style></defs><g transform="translate(-236 -286)"><rect class="a" width="21.012" height="21.012" transform="translate(236 286)"/><path class="b" d="M255.511,289.751v10.506a1.756,1.756,0,0,1-1.751,1.751H241.5l-3.493,3.5V289.751A1.756,1.756,0,0,1,239.761,288h14A1.756,1.756,0,0,1,255.511,289.751Z" transform="translate(-0.25 -0.249)"/><path class="c" d="M591.756,474.2a.661.661,0,0,1,0,.935L586.4,480.5a.661.661,0,0,1-.935,0l-2.441-2.441a.661.661,0,1,1,.935-.935l1.97,1.97,4.9-4.9A.659.659,0,0,1,591.756,474.2Z" transform="translate(-340.951 -182.277)"/></g></svg>