<svg xmlns="http://www.w3.org/2000/svg" width="38" height="38" viewBox="0 0 38 38">
  <g id="Formulary_Management" data-name="Formulary Management" transform="translate(0)">
    <rect id="Path" width="38" height="38" fill="rgba(0,0,0,0)"/>
    <path id="Icon" d="M29.555,28.107H.845a.879.879,0,0,1,0-1.756H29.555a.879.879,0,0,1,0,1.756Zm-.845-5.271H1.69a1.758,1.758,0,0,1,0-3.513H28.71a1.758,1.758,0,0,1,0,3.513Zm0-7.026H1.69A1.726,1.726,0,0,1,0,14.053V12.3A1.726,1.726,0,0,1,1.69,10.54H28.71A1.725,1.725,0,0,1,30.4,12.3v1.756A1.725,1.725,0,0,1,28.71,15.81Zm0-8.784H1.69A1.726,1.726,0,0,1,0,5.269V1.756A1.726,1.726,0,0,1,1.69,0H28.71A1.725,1.725,0,0,1,30.4,1.756V5.269A1.725,1.725,0,0,1,28.71,7.026Z" transform="translate(3.8 4.947)" fill="#43425d"/>
  </g>
</svg>
