<svg xmlns="http://www.w3.org/2000/svg" width="18" height="21.444" viewBox="0 0 18 21.444"><defs><style>.a{fill:#a9bad0;}.b{fill:#fff;font-size:8px;font-family:SourceSansPro-Bold, Source Sans Pro;font-weight:700;}</style></defs><g transform="translate(-9.5 -114.821)"><path class="a" d="M15.406,21.444h-1.34A.167.167,0,0,1,13.9,21.3l-.127-.885a2.284,2.284,0,0,1-.569-.328l-.831.335a.193.193,0,0,1-.062.01.162.162,0,0,1-.146-.084l-.671-1.159a.176.176,0,0,1,.04-.215l.71-.556a2.716,2.716,0,0,1,0-.657l-.71-.556a.166.166,0,0,1-.04-.215l.671-1.159a.177.177,0,0,1,.149-.084.167.167,0,0,1,.058.01l.831.335a2.682,2.682,0,0,1,.569-.328l.127-.885a.174.174,0,0,1,.168-.141h1.34a.161.161,0,0,1,.161.141l.127.885a2.277,2.277,0,0,1,.57.328l.831-.335a.2.2,0,0,1,.062-.01.163.163,0,0,1,.146.084l.67,1.159a.174.174,0,0,1-.04.215l-.71.556a1.728,1.728,0,0,1,.027.329,2.528,2.528,0,0,1-.027.328l.717.556a.175.175,0,0,1,.04.215l-.67,1.159a.178.178,0,0,1-.15.084.169.169,0,0,1-.058-.01l-.837-.335a2.47,2.47,0,0,1-.563.328l-.127.885A.173.173,0,0,1,15.406,21.444Zm-.67-4.356a1.005,1.005,0,1,0,1.005,1.005A1.006,1.006,0,0,0,14.736,17.088Zm-5.9,1.675H1.34A1.342,1.342,0,0,1,0,17.424V1.34A1.342,1.342,0,0,1,1.34,0H14.073a1.342,1.342,0,0,1,1.341,1.34V12.48l-.029.027-.012.011-.139.128a8.018,8.018,0,0,0-3.833.984c-1.606.982-2.469,2.709-2.565,5.134Z" transform="translate(9.5 114.821)"/><text class="b" transform="translate(12.511 124.832)"><tspan x="0" y="0">RX</tspan></text></g></svg>