<svg xmlns="http://www.w3.org/2000/svg" width="20.352" height="22.351" viewBox="0 0 20.352 22.351"><defs><style>.a,.b{fill:#a9bad0;}.a{stroke:rgba(0,0,0,0);}</style></defs><g transform="translate(-8.5 -309.32)"><path class="a" d="M574.865-616H569a2,2,0,0,1-2-2l.01-14a2,2,0,0,1,1.99-2h1v-1a1,1,0,0,1,1-1,1,1,0,0,1,1,1v1h8v-1a1,1,0,0,1,1-1,1,1,0,0,1,1,1v1h1a2,2,0,0,1,2,2v5.865a7.446,7.446,0,0,0-2-.715V-629H569v10a1,1,0,0,0,1,1h4.15a7.45,7.45,0,0,0,.714,2Z" transform="translate(-558 945.82)"/><path class="b" d="M5.926,11.852A5.927,5.927,0,0,1,5.372.024C5.554.008,5.738,0,5.919,0a5.9,5.9,0,0,1,4.2,1.737L11.293.564a.32.32,0,0,1,.231-.1.326.326,0,0,1,.329.33V4.279a.326.326,0,0,1-.33.329H8.039a.324.324,0,0,1-.3-.2.329.329,0,0,1,.075-.364L9.186,2.665a4.6,4.6,0,1,0-3.326,7.87h.065A4.616,4.616,0,0,0,10.5,6.491a.649.649,0,0,1,.645-.567.661.661,0,0,1,.659.738A5.93,5.93,0,0,1,5.926,11.852ZM7.9,8.061h0a.5.5,0,0,1-.252-.068L5.59,6.775a.665.665,0,0,1-.322-.567V3.784a.494.494,0,0,1,.494-.494.509.509,0,0,1,.5.487V6.017l1.89,1.126a.481.481,0,0,1,.226.3.494.494,0,0,1-.481.616Z" transform="translate(16.999 319.819)"/></g></svg>