<svg xmlns="http://www.w3.org/2000/svg" width="18.001" height="21.444" viewBox="0 0 18.001 21.444"><defs><style>.a{fill:#a9bad0;}.b{fill:#fff;stroke:rgba(0,0,0,0);stroke-miterlimit:10;}</style></defs><g transform="translate(-11.5 -544.82)"><path class="a" d="M15.406,21.444h-1.34a.167.167,0,0,1-.167-.14l-.127-.885a2.283,2.283,0,0,1-.57-.328l-.832.335a.193.193,0,0,1-.062.01.164.164,0,0,1-.146-.084l-.67-1.159a.173.173,0,0,1,.04-.214l.711-.556a2.617,2.617,0,0,1,0-.657l-.711-.556a.166.166,0,0,1-.04-.214l.67-1.16a.18.18,0,0,1,.15-.083.168.168,0,0,1,.058.01l.832.335a2.667,2.667,0,0,1,.57-.329l.127-.885a.173.173,0,0,1,.167-.14h1.34a.16.16,0,0,1,.161.14l.127.885a2.255,2.255,0,0,1,.57.329l.832-.335a.193.193,0,0,1,.062-.01.162.162,0,0,1,.145.083l.67,1.16a.172.172,0,0,1-.04.214l-.71.556a1.776,1.776,0,0,1,.027.328,2.593,2.593,0,0,1-.027.329l.717.556a.175.175,0,0,1,.041.214l-.67,1.159a.177.177,0,0,1-.15.084.168.168,0,0,1-.058-.01l-.838-.335a2.488,2.488,0,0,1-.563.328l-.128.885A.172.172,0,0,1,15.406,21.444Zm-.67-4.356a1.005,1.005,0,1,0,1.005,1.005A1.006,1.006,0,0,0,14.737,17.088Zm-5.9,1.676H1.34A1.342,1.342,0,0,1,0,17.423V1.34A1.342,1.342,0,0,1,1.34,0H14.073a1.342,1.342,0,0,1,1.34,1.34V12.479l-.083.076-.1.089a8.01,8.01,0,0,0-3.833.984c-1.606.982-2.469,2.71-2.564,5.134Z" transform="translate(11.5 544.82)"/><path class="b" d="M149.242,389.77a.772.772,0,0,0-.77-.77h-7.7a.77.77,0,0,0,0,1.54h7.7A.772.772,0,0,0,149.242,389.77Z" transform="translate(-126 162.851)"/><path class="b" d="M9.242.77A.772.772,0,0,0,8.472,0H.77a.77.77,0,0,0,0,1.54h7.7A.772.772,0,0,0,9.242.77Z" transform="translate(19.391 548) rotate(90)"/></g></svg>