<svg xmlns="http://www.w3.org/2000/svg" width="17.734" height="18.314" viewBox="0 0 17.734 18.314"><defs><style>.a{fill:#a9bad0;}</style></defs><g transform="translate(-12 -289)"><path class="a" d="M452.731,166.039v-3.154h-3.154a1.577,1.577,0,0,1,0-3.154h3.154v-3.154a1.577,1.577,0,0,1,3.154,0v3.154h3.154a1.577,1.577,0,0,1,0,3.154h-3.154v3.154a1.577,1.577,0,0,1-3.154,0Z" transform="translate(-436 134)"/><path class="a" d="M598.149,474.34a1.134,1.134,0,0,1,0,1.6l-9.2,9.207a1.134,1.134,0,0,1-1.6,0l-4.188-4.188a1.135,1.135,0,0,1,1.6-1.6l3.38,3.38,8.41-8.41A1.13,1.13,0,0,1,598.149,474.34Z" transform="translate(-568.748 -178.171)"/></g></svg>