<svg xmlns="http://www.w3.org/2000/svg" width="18.3" height="20.036" viewBox="0 0 18.3 20.036"><defs><style>.a{fill:rgba(0,0,0,0);}.b{fill:#a9bad0;}.c{fill:none;stroke:#a8b9cf;stroke-width:3px;}</style></defs><g transform="translate(-9 -466.888)"><g transform="translate(9 468.625)"><rect class="a" width="18.3" height="18.3"/><path class="b" d="M16.569,13.725H1.525A1.527,1.527,0,0,1,0,12.2L.008,1.525A1.523,1.523,0,0,1,1.525,0H16.569a1.527,1.527,0,0,1,1.525,1.525V12.2A1.527,1.527,0,0,1,16.569,13.725ZM5.235,5.338a.763.763,0,0,0-.762.762V7.625a.763.763,0,0,0,.762.762H7.522v2.288a.763.763,0,0,0,.762.762H9.809a.763.763,0,0,0,.762-.762V8.387H12.86a.763.763,0,0,0,.762-.762V6.1a.763.763,0,0,0-.762-.762H10.572V3.051a.764.764,0,0,0-.762-.763H8.285a.764.764,0,0,0-.762.763V5.338Z" transform="translate(0.103 2.287)"/></g><path class="c" d="M78.262,134.1v-2.531H85.1V134.1" transform="translate(-63.657 336.821)"/></g></svg>