<svg xmlns="http://www.w3.org/2000/svg" width="18" height="16" viewBox="0 0 18 16"><defs><style>.a{fill:#a9bad0;}</style></defs><g transform="translate(-63 -240)"><path class="a" d="M563,346a1,1,0,0,1-1,1H546a1,1,0,0,1,0-2h16A1,1,0,0,1,563,346Z" transform="translate(-482 -94)"/><path class="a" d="M563,341v1a1,1,0,0,1-1,1H546a1,1,0,0,1-1-1v-1a1,1,0,0,1,1-1h16A1,1,0,0,1,563,341Z" transform="translate(-482 -94)"/><path class="a" d="M563,335v2a1,1,0,0,1-1,1H546a1,1,0,0,1-1-1v-2a1,1,0,0,1,1-1h16A1,1,0,0,1,563,335Z" transform="translate(-482 -94)"/><path class="a" d="M563,349.5a.5.5,0,0,1-.5.5h-17a.5.5,0,1,1,0-1h17A.5.5,0,0,1,563,349.5Z" transform="translate(-482 -94)"/></g></svg>