<svg xmlns="http://www.w3.org/2000/svg" width="22" height="22.001" viewBox="0 0 22 22.001"><defs><style>.a{fill:#a9bad0;}</style></defs><path class="a" d="M180,3233a1,1,0,0,1-1-1v-1.06a8.994,8.994,0,0,1-7.94-7.94H170a1,1,0,1,1,0-2h1.06a8.994,8.994,0,0,1,7.94-7.941V3212a1,1,0,1,1,2,0v1.06a8.994,8.994,0,0,1,7.94,7.941H190a1,1,0,1,1,0,2h-1.06a8.994,8.994,0,0,1-7.94,7.94V3232A1,1,0,0,1,180,3233Zm0-18a7,7,0,1,0,7,7A7.008,7.008,0,0,0,180,3215Zm0,11a4,4,0,1,1,4-4A4,4,0,0,1,180,3226Z" transform="translate(-169 -3210.999)"/></svg>