<svg xmlns="http://www.w3.org/2000/svg" width="19.67" height="19.092" viewBox="0 0 19.67 19.092"><defs><style>.a{fill:#a9bad0;}</style></defs><path class="a" d="M587.5,484.092a.99.99,0,0,1-.7-.293l-3.68-3.679a1,1,0,1,1,1.41-1.41l2.97,2.97,7.39-7.39a.993.993,0,0,1,1.4.01,1,1,0,0,1,0,1.41L588.21,483.8A.992.992,0,0,1,587.5,484.092ZM587.12,478a1,1,0,0,1-.911-.62l-.9-2.38H579.67l-.88,2.37a.979.979,0,0,1-.91.63.968.968,0,0,1-.9-1.32l4.25-10.81a1.362,1.362,0,0,1,2.54,0l4.25,10.81a.964.964,0,0,1-.1.9A.954.954,0,0,1,587.12,478ZM582.5,467.48,580.43,473h4.14l-2.07-5.52Z" transform="translate(-576.913 -465)"/></svg>