<svg xmlns="http://www.w3.org/2000/svg" xmlns:xlink="http://www.w3.org/1999/xlink" width="24" height="24" viewBox="0 0 24 24">
  <defs>
    <clipPath id="clip-path">
      <path id="Mask" d="M1.328,10.688A1.284,1.284,0,0,1,.391,10.3a1.358,1.358,0,0,1,0-1.906A1.284,1.284,0,0,1,1.328,8a1.283,1.283,0,0,1,.937.391,1.358,1.358,0,0,1,0,1.906A1.283,1.283,0,0,1,1.328,10.688Zm0-4A1.284,1.284,0,0,1,.391,6.3a1.359,1.359,0,0,1,0-1.907A1.284,1.284,0,0,1,1.328,4a1.283,1.283,0,0,1,.937.391,1.359,1.359,0,0,1,0,1.907A1.283,1.283,0,0,1,1.328,6.688Zm0-4A1.284,1.284,0,0,1,.391,2.3,1.3,1.3,0,0,1,0,1.344,1.3,1.3,0,0,1,.391.391,1.284,1.284,0,0,1,1.328,0a1.283,1.283,0,0,1,.937.391,1.3,1.3,0,0,1,.391.953,1.3,1.3,0,0,1-.391.953A1.283,1.283,0,0,1,1.328,2.687Z" fill="#757575"/>
    </clipPath>
    <clipPath id="clip-path-2">
      <rect width="72" height="72" fill="none"/>
    </clipPath>
  </defs>
  <g id="Group_67" data-name="Group 67" transform="translate(-1235.328 -344.344)">
    <rect id="Rectangle_745" data-name="Rectangle 745" width="24" height="24" transform="translate(1235.328 344.344)" fill="none"/>
    <g id="Group" transform="translate(1246 351)">
      <path id="Mask-2" data-name="Mask" d="M1.328,10.688A1.284,1.284,0,0,1,.391,10.3a1.358,1.358,0,0,1,0-1.906A1.284,1.284,0,0,1,1.328,8a1.283,1.283,0,0,1,.937.391,1.358,1.358,0,0,1,0,1.906A1.283,1.283,0,0,1,1.328,10.688Zm0-4A1.284,1.284,0,0,1,.391,6.3a1.359,1.359,0,0,1,0-1.907A1.284,1.284,0,0,1,1.328,4a1.283,1.283,0,0,1,.937.391,1.359,1.359,0,0,1,0,1.907A1.283,1.283,0,0,1,1.328,6.688Zm0-4A1.284,1.284,0,0,1,.391,2.3,1.3,1.3,0,0,1,0,1.344,1.3,1.3,0,0,1,.391.391,1.284,1.284,0,0,1,1.328,0a1.283,1.283,0,0,1,.937.391,1.3,1.3,0,0,1,.391.953,1.3,1.3,0,0,1-.391.953A1.283,1.283,0,0,1,1.328,2.687Z" transform="translate(0)" fill="#757575"/>
      <g id="Group-2" data-name="Group" transform="translate(0)" clip-path="url(#clip-path)">
        <g id="_icon-color" data-name="↳🎨icon-color" transform="translate(-34 -31)" clip-path="url(#clip-path-2)">
          <rect id="Icon-Shade" width="72" height="72" fill="#757575"/>
        </g>
      </g>
    </g>
  </g>
</svg>
