<svg id="baseline-picture_as_pdf-24px_1_" data-name="baseline-picture_as_pdf-24px (1)" xmlns="http://www.w3.org/2000/svg" width="24" height="24" viewBox="0 0 24 24">
  <path id="Path_1252" data-name="Path 1252" d="M0,0H24V24H0Z" fill="none"/>
  <path id="Path_1253" data-name="Path 1253" d="M23.5,2H8.5A2.507,2.507,0,0,0,6,4.5v15A2.507,2.507,0,0,0,8.5,22h15A2.507,2.507,0,0,0,26,19.5V4.5A2.507,2.507,0,0,0,23.5,2ZM12.875,11.375A1.872,1.872,0,0,1,11,13.25H9.75v2.5H7.875V8.25H11a1.872,1.872,0,0,1,1.875,1.875Zm6.25,2.5A1.872,1.872,0,0,1,17.25,15.75H14.125V8.25H17.25a1.872,1.872,0,0,1,1.875,1.875Zm5-3.75H22.25v1.25h1.875V13.25H22.25v2.5H20.375V8.25h3.75ZM9.75,11.375H11v-1.25H9.75Zm6.25,2.5h1.25v-3.75H16Z" transform="translate(-4)" fill="#43425d"/>
</svg>
