<svg xmlns="http://www.w3.org/2000/svg" width="35.656" height="42.259" viewBox="0 0 35.656 42.259">
  <g id="Process_Rx" data-name="Process Rx" transform="translate(0 0)">
    <rect id="Path" width="31.694" height="31.694" transform="translate(3.962 10.564)" fill="rgba(0,0,0,0)"/>
    <path id="Icon" d="M29.622,42.258H26.6a.376.376,0,0,1-.378-.317l-.287-2a5.193,5.193,0,0,1-1.284-.74l-1.874.755a.442.442,0,0,1-.139.023.368.368,0,0,1-.33-.189L20.8,37.18a.4.4,0,0,1,.09-.484l1.6-1.254a6.118,6.118,0,0,1,0-1.481l-1.6-1.255a.373.373,0,0,1-.09-.483l1.511-2.615a.4.4,0,0,1,.338-.189.382.382,0,0,1,.131.023l1.874.756a6.041,6.041,0,0,1,1.284-.741l.287-2a.391.391,0,0,1,.378-.318h3.023a.363.363,0,0,1,.363.318l.287,2a5.118,5.118,0,0,1,1.284.741l1.874-.756a.442.442,0,0,1,.139-.023.368.368,0,0,1,.33.189l1.511,2.615a.393.393,0,0,1-.09.483l-1.6,1.255a3.991,3.991,0,0,1,.06.741,5.857,5.857,0,0,1-.058.721l0,.02L35.334,36.7a.4.4,0,0,1,.091.484l-1.511,2.614a.4.4,0,0,1-.338.189.382.382,0,0,1-.131-.023l-1.889-.755a5.619,5.619,0,0,1-1.269.74l-.287,2A.391.391,0,0,1,29.622,42.258ZM28.04,32.674a1.981,1.981,0,1,0,1.981,1.981A1.983,1.983,0,0,0,28.04,32.674Zm-10.628,4.3H2.642A2.644,2.644,0,0,1,0,34.335V2.641A2.644,2.644,0,0,1,2.642,0H27.733a2.644,2.644,0,0,1,2.641,2.641V24.593l-.145.134,0,0-.2.187c-4.217.2-6.252,1.143-7.554,1.939C19.3,28.793,17.6,32.2,17.411,36.975Z" transform="translate(0 0)" fill="#43425d"/>
    <text id="RX" transform="translate(3.962 20.961)" fill="#fff" font-size="17" font-family="SourceSansPro-Regular, Source Sans Pro"><tspan x="0" y="0">RX</tspan></text>
  </g>
</svg>
