<svg xmlns="http://www.w3.org/2000/svg" width="24" height="24" viewBox="0 0 24 24"><defs><style>.a{fill:rgba(0,0,0,0);}.b{fill:#a9bad0;}</style></defs><g transform="translate(-134 -374)"><rect class="a" width="24" height="24" transform="translate(134 374)"/><path class="b" d="M154.99,395.8h0a.506.506,0,0,1-.349-.15l-.79-.79a.5.5,0,0,0-.71,0l-.789.79a.5.5,0,0,1-.71,0l-.79-.79a.5.5,0,0,0-.71,0l-.79.79a.494.494,0,0,1-.709,0l-.79-.79a.5.5,0,0,0-.71,0l-.79.79a.5.5,0,0,1-.71,0l-.79-.79a.495.495,0,0,0-.709,0l-.79.79a.5.5,0,0,1-.71,0l-.79-.79a.5.5,0,0,0-.71,0l-.79.79a.5.5,0,0,1-.71,0l-.789-.79a.5.5,0,0,0-.71,0l-.79.79a.469.469,0,0,1-.35.149V376.21a.5.5,0,0,1,.35.14l.79.8a.494.494,0,0,0,.71,0l.789-.8a.494.494,0,0,1,.71,0l.79.8a.494.494,0,0,0,.71,0l.79-.8a.494.494,0,0,1,.71,0l.8.8a.494.494,0,0,0,.71,0l.789-.79a.5.5,0,0,1,.71,0l.79.79a.494.494,0,0,0,.71,0l.79-.79a.5.5,0,0,1,.71,0l.789.79a.494.494,0,0,0,.71,0l.79-.79a.5.5,0,0,1,.71,0l.79.79a.493.493,0,0,0,.709,0l.79-.79a.472.472,0,0,1,.34-.149V395.8ZM141,389a1,1,0,1,0,0,2h10a1,1,0,1,0,0-2Zm0-4a1,1,0,0,0,0,2h10a1,1,0,0,0,0-2Zm0-4a1,1,0,0,0,0,2h10a1,1,0,0,0,0-2Z"/></g></svg>