<svg xmlns="http://www.w3.org/2000/svg" width="54.487" height="40.488" viewBox="0 0 54.487 40.488">
  <g id="Reconcile_Prescription" data-name="Reconcile Prescription" transform="translate(-135 -64)">
    <g id="file_copy" transform="translate(-373 -1418)">
      <rect id="Path" width="32.487" height="32.487" transform="translate(508 1482)" fill="rgba(0,0,0,0)"/>
      <path id="Icon" d="M20.355,26.487H3.116A3.036,3.036,0,0,1,0,23.545l.016-20.6A3.036,3.036,0,0,1,3.131,0H14.092l9.4,8.828V23.545A3.045,3.045,0,0,1,20.355,26.487ZM3.131,2.943v20.6H20.355V10.3H12.527V2.943Z" transform="translate(513 1485)" fill="#43425d"/>
      <path id="Op_component_1" data-name="Op component 1" d="M417,379v5.59h-3.5l4.5,4.5,4.5-4.5H419V379Z" transform="translate(140.955 1919.045) rotate(-90)" fill="#43425d"/>
    </g>
    <g id="file_copy-2" data-name="file_copy" transform="translate(157 72)">
      <rect id="Path-2" data-name="Path" width="32.487" height="32.488" transform="translate(0 0)" fill="rgba(0,0,0,0)"/>
      <path id="Icon-2" data-name="Icon" d="M20.355,0H3.116A3.036,3.036,0,0,0,0,2.943l.016,20.6a3.036,3.036,0,0,0,3.116,2.943H14.092l9.4-8.829V2.943A3.046,3.046,0,0,0,20.355,0ZM3.131,23.545V2.943H20.355V16.187H12.527v7.358Z" transform="translate(27.487 29.488) rotate(180)" fill="#43425d"/>
      <path id="Op_component_1-2" data-name="Op component 1" d="M3.5,10.09V4.5H0L4.5,0,9,4.5H5.5v5.59Z" transform="translate(10.442 23.546) rotate(-90)" fill="#43425d"/>
    </g>
  </g>
</svg>
