<svg xmlns="http://www.w3.org/2000/svg" width="38" height="38" viewBox="0 0 38 38">
  <g id="Scheduling" transform="translate(-576 -506)">
    <rect id="Path" width="38" height="38" transform="translate(576 506)" fill="rgba(0,0,0,0)"/>
    <path id="Subtraction_3" data-name="Subtraction 3" d="M13.982,34H3.555A3.484,3.484,0,0,1,0,30.6L.018,6.8A3.475,3.475,0,0,1,3.555,3.4H5.334V1.7A1.742,1.742,0,0,1,7.112,0,1.742,1.742,0,0,1,8.89,1.7V3.4H23.112V1.7a1.779,1.779,0,0,1,3.555,0V3.4h1.778A3.485,3.485,0,0,1,32,6.8v9.971a13.636,13.636,0,0,0-3.555-1.215V11.9H3.555v17a1.743,1.743,0,0,0,1.779,1.7h7.377A12.307,12.307,0,0,0,13.981,34Z" transform="translate(579 506.999)" fill="#43425d" stroke="rgba(0,0,0,0)" stroke-width="1"/>
    <path id="Icon" d="M9.849,19.7A9.852,9.852,0,0,1,8.929.04c.3-.027.608-.04.908-.04a9.81,9.81,0,0,1,6.984,2.886L18.769.938a.532.532,0,0,1,.384-.166.542.542,0,0,1,.546.549v5.79a.541.541,0,0,1-.548.547h-5.79a.538.538,0,0,1-.506-.336.546.546,0,0,1,.124-.6l2.287-2.288a7.641,7.641,0,1,0-5.527,13.08h.109a7.672,7.672,0,0,0,7.608-6.721,1.079,1.079,0,0,1,1.073-.942,1.1,1.1,0,0,1,1.094,1.226A9.855,9.855,0,0,1,9.849,19.7Zm3.275-6.3h0a.829.829,0,0,1-.418-.114L9.29,11.26a1.106,1.106,0,0,1-.536-.942V6.29a.822.822,0,0,1,.821-.821.847.847,0,0,1,.831.81V10l3.141,1.872a.8.8,0,0,1,.376.5.821.821,0,0,1-.8,1.024Z" transform="translate(594.152 524.153)" fill="#43425d"/>
  </g>
</svg>
