<svg xmlns="http://www.w3.org/2000/svg" width="14.622" height="14.623" viewBox="0 0 14.622 14.623">
  <g id="Group_69" data-name="Group 69" transform="translate(0 0)">
    <path id="Shape" d="M13.826,14.623a.8.8,0,0,1-.575-.236L9.619,10.74a6.218,6.218,0,0,1-3.5,1.068A6.019,6.019,0,0,1,0,5.9,6.019,6.019,0,0,1,6.115,0,6.019,6.019,0,0,1,12.23,5.9,5.782,5.782,0,0,1,10.8,9.7l3.6,3.62a.752.752,0,0,1-.021,1.089A.812.812,0,0,1,13.826,14.623ZM6.115,1.54A4.45,4.45,0,0,0,1.595,5.9a4.449,4.449,0,0,0,4.521,4.363A4.449,4.449,0,0,0,10.635,5.9,4.449,4.449,0,0,0,6.115,1.54Z" fill="#43425d"/>
  </g>
</svg>
