<svg xmlns="http://www.w3.org/2000/svg" width="19.263" height="19.264" viewBox="0 0 19.263 19.264"><defs><style>.a{fill:#a8b9cf;fill-rule:evenodd;}</style></defs><g transform="translate(-0.003 0)"><g transform="translate(0.003 0)"><path class="a" d="M19.206,8.562a.627.627,0,0,0-.619-.474,2.127,2.127,0,0,1-1.456-3.7.535.535,0,0,0,.059-.726,9.531,9.531,0,0,0-1.526-1.541.536.536,0,0,0-.732.059,2.22,2.22,0,0,1-2.4.54,2.139,2.139,0,0,1-1.3-2.091.534.534,0,0,0-.473-.563A9.616,9.616,0,0,0,8.588.059.536.536,0,0,0,8.112.61,2.143,2.143,0,0,1,6.793,2.665a2.226,2.226,0,0,1-2.384-.543.537.537,0,0,0-.727-.061A9.567,9.567,0,0,0,2.123,3.6a.536.536,0,0,0,.057.732,2.134,2.134,0,0,1,.539,2.4,2.227,2.227,0,0,1-2.1,1.3.524.524,0,0,0-.556.473,9.649,9.649,0,0,0,0,2.19.637.637,0,0,0,.632.474A2.112,2.112,0,0,1,2.676,12.5a2.142,2.142,0,0,1-.539,2.382.535.535,0,0,0-.059.726A9.566,9.566,0,0,0,3.6,17.144a.536.536,0,0,0,.733-.058,2.217,2.217,0,0,1,2.4-.54,2.136,2.136,0,0,1,1.3,2.091.535.535,0,0,0,.473.563,9.586,9.586,0,0,0,2.167.006.536.536,0,0,0,.477-.552A2.141,2.141,0,0,1,12.475,16.6a2.223,2.223,0,0,1,2.385.543.538.538,0,0,0,.727.061,9.589,9.589,0,0,0,1.558-1.541.535.535,0,0,0-.058-.732,2.134,2.134,0,0,1-.54-2.4,2.156,2.156,0,0,1,1.97-1.306l.119,0a.536.536,0,0,0,.564-.472A9.64,9.64,0,0,0,19.206,8.562Zm-9.556,4.3a3.213,3.213,0,1,1,3.213-3.213A3.216,3.216,0,0,1,9.65,12.865Z" transform="translate(-0.003 0)"/></g></g></svg>