<svg xmlns="http://www.w3.org/2000/svg" width="24" height="24" viewBox="0 0 24 24">
  <g id="alarm_on" transform="translate(-508 -154)">
    <rect id="Path" width="24" height="24" transform="translate(508 154)" fill="rgba(0,0,0,0)"/>
    <path id="Icon" d="M520,176a9,9,0,1,1,9-9A9.01,9.01,0,0,1,520,176Zm0-16a7,7,0,1,0,7,7A7.008,7.008,0,0,0,520,160Zm-1.471,10.64h0l-3.179-3.179,1.06-1.06,2.129,2.129,4.93-4.949,1.06,1.059-6,6Zm10.134-9.45h0l-4.609-3.842,1.283-1.537,4.607,3.845-1.28,1.535Zm-17.327,0h0l-1.279-1.536,4.606-3.844,1.282,1.536-4.607,3.843Z" fill="#43425d"/>
  </g>
</svg>
