<svg xmlns="http://www.w3.org/2000/svg" width="64.949" height="68.864" viewBox="0 0 64.949 68.864">
  <g id="Work_In_Progress" data-name="Work In Progress" transform="translate(-131.88 -106.286)">
    <g id="Group_1144" data-name="Group 1144" transform="translate(21 -15)">
      <path id="Op_component_2" data-name="Op component 2" d="M735.688,416.525a1.171,1.171,0,0,1,.271,1.444l-4.514,7.809a1.182,1.182,0,0,1-1.4.5l-5.642-2.256a16.714,16.714,0,0,1-3.791,2.211l-.858,5.958a1.16,1.16,0,0,1-1.128.947H709.6a1.124,1.124,0,0,1-1.128-.947l-.857-5.958a15.483,15.483,0,0,1-3.837-2.211l-5.6,2.256a1.144,1.144,0,0,1-1.4-.5l-4.513-7.809a1.171,1.171,0,0,1,.271-1.444l4.784-3.746a18.183,18.183,0,0,1,0-4.423l-4.784-3.747a1.116,1.116,0,0,1-.271-1.444l4.513-7.809a1.183,1.183,0,0,1,1.4-.5l5.6,2.257a18.043,18.043,0,0,1,3.837-2.212l.857-5.958A1.159,1.159,0,0,1,709.6,388h9.027a1.078,1.078,0,0,1,1.083.949l.858,5.958a15.43,15.43,0,0,1,3.836,2.212l5.6-2.257a1.146,1.146,0,0,1,1.4.5l4.513,7.809a1.171,1.171,0,0,1-.271,1.444l-4.784,3.747a11.852,11.852,0,0,1,.181,2.212,17.585,17.585,0,0,1-.181,2.212Z" transform="translate(-560.27 -242.984)" fill="#43425d"/>
      <path id="Op_component_3" data-name="Op component 3" d="M5.916,0A5.916,5.916,0,1,1,0,5.916,5.916,5.916,0,0,1,5.916,0Z" transform="translate(147.717 161.532)" fill="#fff"/>
    </g>
    <g id="Group_1145" data-name="Group 1145" transform="translate(0.034 -38.729)">
      <path id="Op_component_2-2" data-name="Op component 2" d="M726.739,410.666a.931.931,0,0,1,.215,1.147l-3.587,6.2a.939.939,0,0,1-1.112.395l-4.483-1.792a13.28,13.28,0,0,1-3.012,1.757l-.682,4.734a.921.921,0,0,1-.9.753h-7.173a.893.893,0,0,1-.9-.753l-.681-4.734a12.3,12.3,0,0,1-3.049-1.757l-4.447,1.792a.909.909,0,0,1-1.112-.395l-3.586-6.2a.93.93,0,0,1,.215-1.147l3.8-2.976a14.454,14.454,0,0,1,0-3.515l-3.8-2.978a.887.887,0,0,1-.215-1.147l3.586-6.2a.94.94,0,0,1,1.112-.394l4.447,1.794a14.337,14.337,0,0,1,3.049-1.757l.681-4.734a.921.921,0,0,1,.9-.754h7.173a.856.856,0,0,1,.86.754l.682,4.734a12.261,12.261,0,0,1,3.048,1.757l4.447-1.794a.911.911,0,0,1,1.112.394l3.586,6.2a.93.93,0,0,1-.215,1.147l-3.8,2.978a9.418,9.418,0,0,1,.144,1.757,13.971,13.971,0,0,1-.144,1.758Z" transform="translate(-560.27 -242.984)" fill="#43425d"/>
      <path id="Op_component_3-2" data-name="Op component 3" d="M4.7,0A4.7,4.7,0,1,1,0,4.7,4.7,4.7,0,0,1,4.7,0Z" transform="translate(144.457 158.139)" fill="#fff"/>
    </g>
  </g>
</svg>
